<svg xmlns="http://www.w3.org/2000/svg" viewBox="0 0 180 180"><circle cx="90" cy="90" r="90" fill="#629fbc"/><path fill="#fff" d="m39 82 1 1.3c-1.9 0-3.9-.2-4.2-1V82q1.4-.2 3.3-.2m10.2 4.2.4 1.4h-1l.2-1.4zm3.6 10.2c-1 .9-1.7 1.4-2.2 2.8Q49.5 98 49 95.8l-.5-4.5v-.7h1.1l2.8 5.2zm-1.4-13 .4-3h.4zm-.8-13 5 1.3v.3c-2.3 1.7-4.5 2.4-5.6 5.6l.4-7zm4.7-7.2c-.3 3.2.2 4.6.7 6.6 1 .7 1.3 1 1 2-1.5-.7-3.1-1.5-5.4-1.4l-.2-.2c.7-2.5 2-4.1 2.9-6.1zm7.3-4.3h.2c-.7 2.3-1 7.8-2.2 10-2.9-1.3-2.8-7.2.4-9.5zm-2.7 17.6 2.4 2.7c-1 2.9-2.7 5-3.5 8.4h-1.4c-1.2-3.5 1.8-9 2.3-11.5l2.3.3.8 2zM66.5 59c-.2 2.8.4 4.2.6 6.4l-4.3 2.2c.3-3.6 1-6 2-8.5zm1.7-4.3h.3l-.5 1.3h-1l.8-.8zm.3 13.1q-2.2 1.4-4.3 2.7c.1-1.6 2.1-3.8 3.8-4.4l.4.3zm2.8-9.9-.7 4.4-.8.5-.5.5c-.7-1.1-1-3.8-.8-5.8zm2.9-3.3v.2l-1.1 1c-.8.3-.8.3-1.8.3l.4-1.5zm2.8-5.7-1.2 2.9-4.5-.4v-.2c1.9-.8 3.5-1.8 5.7-2.3m-2.3 7.4.5-.2.4 1.4q-.8 0-1.4-.3zm3.7 4.3c-1.7.7-4 .5-5.4 1.2l-.2-1.7.8-1.1q2.3.7 4.3 1.6zm-3.6 2.6h-2v-.5c1.3-.6 3.6-.6 5.6-.9L76.3 63zm5 0a10 10 0 0 0-4.2 3c-.2-1.4 2.3-3.7 3.5-4.4.5.5.6.5.8 1.4m3-17.2-.1.2-1.7 1-2.6.2v-.2zm-2.4 4.3-.5-.8c1.2-1 4-.5 5.7-.3zM93.1 46q3.7.2 6.2 1.8h.5l-.3.3-2.3.7-4-.6-9-1.3v-.2q4.4-1 9-.7m9.5-.8-.5.7a7 7 0 0 1-3.7-1.4l4.2.5zm7.6 5.3 1.2-.4 1.2 1c-.2 1.2-1.3 2.2-2.2 3.4h-.7c-1.9-3-4.2-6.4-8.3-7.6l-.2-.3 1.7-.7c2.8 1 5 2.4 7.7 3.3.3.8.2.5-.4 1.3m3.4 6.9-.3-.4h-.7l1.2-1zm1.3 15.8q2.9 2.5 1.6 7.2L114 75l.8-1.3zm.5-12.9v.3l-1 1.1-.4-.7c.6-1.1.2-.5 1-.7zm1.2 0 4.5 1.7v.4l-1.1.8-4.6-1.7v-.4zm8.8 5.7-2.5-1.6-.3-.7c1-.6.9-.6 2-.4zm1.4-.5-.5.5q-.7-.4-.9-1.4l1.3.6zm-1-4.1h-.4l1.2-1.1zm6.7 7.2-.7.3-3.8-2.1-1.2-1.6c2-1.5 2 .2 4 1.1zM134 70l-1.4-.5.9-.5zm-1.7 2.3c.5 1 .5.8 1.7.6l-2.1 1.9-2.1-4.2c1.5-.4 2 .2 3.5.4l.6 1zm.3 2.6 2.9-1.6c-.6 1.3-1.3 2-2.2 3zm5.7 5.5c-.8.7-1.3.9-2.7 1l1.2.1v.2l-4 1.7-.2-5.1 2.8-3.3.5-.2zm-1.4-7.9c7.8-2.2 6.3 2 2.8 5.2zm7.1.8c-2.9 13.6-3.4 14.4-13.7 20.2l-.5-.8.3-1.5c6.7-2 10.5-5.4 10.1-13.3l3.4-4.3zm.4 0-.4-1.4h1zm-17.5 13.2.2-2.7 1-.4h.1q.3 2.5-.5 4.3c-.5-.3-.6-.4-.8-1.2M121.1 99v-.2l2-4.5.3-1 3.3.3.1.7c.2 1.7-.4 3-1 4.9zm1.5 5.8V102l2.5.2h.3l-1.6 2.7zm-1.4-9.3zl1.1-.7h.2l-.2.6-.7 2.3-.6-2zm-2.3 7.2-.6-.7c.6.5.2 0 .6.7m-3.5-1.7q1.2-.6 2.9-.4l-.4 1.2c-1 .4-1 .2-2.2.1zm1.8 5.3 1 2.6-2.5 1.8c-.7-1 .1-4 1.5-4.4m-2.8-9h-.4l.5-1zm4 .4-.1-.1.6-1.3h.2l.6 1.4zm10-18.7-.1-.5q.4-.6 1.2-1l.2 1-.9.5zm-.1 3.5q-.6.5-1 .8l-.5-7.2zm-2.7 9.7c1-.6 1.1 0 1.2 1.2H124v-.5zm-1.4-4 .7-.6.5 1-.2.5-1.2-.2zM124 92l-1.5 1.4-1-.2h-.4l.7-1.2zm-5.4-.8c-.6-.4-.2-.4-.3-.7zm4.5-6.4-4.8-2.5c.2-3.3.6-7.1.3-10.5 3.7 1.4 7 7.4 4.5 13m-3.4 0c1.2.6 1.1 1.2 2.8 1.7.3 1-.2 1.4-.9 2.6H120c-.4-2 0-3-.2-4.3m.3 9.3c-.6-.4-.1-.4-.2-.7zm9.7-13.9V80l1.3-.9c.2 1.5.1 4-.2 5.8-.8-.6-1-3.1-1.1-4.6m0 4.6.8-1.5-.5 1.4zm8.3-4.3h.2c0 5.5-3.3 6.5-7.8 8.5h-.7l2.8-5.7zm-8.5-10.8.2.4-.4.3-1-1.5zm-1.2 2.4v-.3h.3l1 1.4c-.7-.3-.9-.4-1.3-1.1m1.4 3.7-2 1.8-4-6-5.4-4.6 1.2-1c2.6 1.2 7 3.3 8 6 .3.8-.7 1.5 0 2.2.8.9 1.6.3 2.2 1.6m-12 9 .4.1.2 4.2-.7-.2c-.6-.4-1-2.6-.5-3.5zm-3.2 7.2h.5l.4 1-.7.4h-.7zm-1.3 23-.6-2.1 2.8-.6zm-2-5.8q.2-1 .9-1.4l.4.1.1.4-.9.9zm.6 1.5-.6-.8 1.4-.7-.4 1.4zm-1.5 6.5-.5-.5h.4l2.2-1.7.2 1.7-1.7 1.2zm.2 16.5c-3.5.1-5.5-.7-8.3-1l-3.2-6.3-.6-.6c5.3-.7 8.7-3.3 12.7-5 1.4 1.3 4.6 8 1.8 11.1-.7 1-1.4 1.1-2.4 1.8m-14.8-7.1 1.3-.1c2 1.3 3.3 3.6 4.2 5.8l-5.7-1.7a7 7 0 0 0 .2-4m-4-5.5 6.4-1.8 10 1 .2.5q-4.6 1.8-9.8 4.2c-3.8.3-4.7-1-7.2-2q0-.9.4-1.9m-.4 6.8v-1.2l2.5-.2q.4 1.3.1 2.9zm-2.9 2.3 1-.5c1.1-.8 2 .2 3.3.6l-.5.5zm2.8-2.3-1-.4-.4-1h1.5zm-4.2 0 1.4 1.3-.2 1.6zm-3.7-5.4q2-.5 5.1-.3l-1.9 1.4-3.8-.4zm-3.4-72c2.6-2.6 9.2-1.9 10.9-.3h.5c-2.3 2-5.7 2.3-7.8 4.3-1.6-1-3-1.8-3.6-4m14.5 4 1.1 1.3-3 .2q-3.7.3-6.4 1.4H86l-.3-.5a20 20 0 0 1 8.6-2.3zm5.5-7.2c1.9 1.9 4.6 3 5.6 5.8-3.9-1.8-9.8-1.8-12.8-4.6a9 9 0 0 0 7.2-1.2m1.3 10.1 5.3.7h.4l-4.2 3.6c-.7-1.3-.9-3.1-1.5-4.3m6.8 6.2-1-.2 1.3-.2zm-1-3.5 1.2-1.2.1 1.4-1-.2zm2.5 47.7h-.6l-.6-.5.4-.6q.6 0 1-.4zm-1.1 2.6.5-.6v-.6l.9 1.3-1.5.2zm-.6 4.6-.9-1 2.9-.5-1.4 1.4zm.5 4.3-2.8-.3 2-1.1zm-2-4 .6.5-2 .5-2.3.1 3.1-1.4zm-8-62.2c1.7 0 3.5.5 4.3 1.4-1.1 0-3.2.1-3.7-.8zm1.5 5.8q1.2 1 1 2.8c-1.3-.4-1-1.8-1-2.8m1.4 9v-.2c2.9-.6 3.5.3 2.2 1.2q-1.5-.2-2.2-1m3.7 37 .6.2v.2l-1.4 1 .5-1.4zm-.8-35.1 1-.9.4 1.5-1.4-.3zm4.2 38.5-3.4.9h-.8v-.1a6 6 0 0 0 2.9-1.3l1.2.2zm-2.4-3.4-.4-.8 1-.6.4.2-.6 1.2zm-9 10 1.7-1.4 5.3.5.2.4-3.6 2a5 5 0 0 1-3.1-1.6zm-2.6 0 2.6 1.5-4.2-.7zm-.2 3v.4l-.8.4h-.6v-.3c.6-.8.5-.5 1.4-.5m-6.7-58.6L87 59a16 16 0 0 1 5.8-1.3l4.9-.2.7 4.3-5.6-.5a29 29 0 0 0-5 .2zm2 57.8.4.6-.3 1.3-4 .3c.5-1.3 1.1-1.9 1.8-2.9zm-4.8-5c-1.8 0-4.2-1.4-4.7-2.9l5.7 1.5zm2 0h-1v-.3l1.2-1.1zm-3.9-52.7 1.7-.5 1.2 1.3h-1.2zm0 61.8-.3 1H82l-.7-1.5 1.4.2zm.8-6.2 3.3.7.2.4-2.6 3.2-3.1-.5zm24.8-45.1.7-1h.2l1.8.5.2.2-2 .8zm3.9-4.7-1-.6c1 .4.4 0 1 .6m-.3 6.6-.7-.6 1.4-.8zm-.7 10q1 .4 2.2.6c.6.3.6.3.6 1-1-.4-2.5-.7-2.8-1.5m.2-3.8q0-.3.3-.4l.9 1.4q-.8 0-1.4-.3zm-28.8 47.3.1.4-1.9.7-1 .1v-.2l.7-1c1-.4 1-.2 2 0m-4.2-72.2c1.3 1 1.6 2 1.4 5.8-.8-1-1.3-3.3-1.4-5.8m.9-2.9-.1 1-.8.1zm-.9 1.5v1l-1.4-.2 1.1-.8zm0 83.4.7-7.3 5-1.3-5.2 8.4zm.4-19.7.8-.4c.7.8 0 2-.6 2.9-.6-.6-.6-.9-.5-2zm-4.6-.7 1.6-2.6 2.6 1.5-2.7 4.3a5 5 0 0 1-1.5-3.2m0 11.3 2.6-2.4 1.2.1.4.7-.3 2.1zm-4.3-2 3.1-1.8 2.4.4.2.3-2.5 2.2q-1.9-.3-2.7-1zm-.4-2.7 1.1-.6.5.1.2.3-3.3 1-1-.3zm-3.9-1.4.9-2c1.5-.2 1.9.6 3 1l.4.6-1.7 1.1-1.5.1zm-2.8 6 2-3.7c1.4 0 1.6 0 2.2.8.2.4 0 .2-.5.3l-.2 1.3 2.2.3c-.4 1-.5 1-1.2 1.6-2 0-3-.3-4.5-.7m-2.4-5.2 3.6 1.1.2.5L62 125l-3.4-1.1zm-14-3.8.1-.5 2 1.6.2.4c-4.2 3.2 2.2 13.8 9.5 7l3.2 1.2c-1.2 2.1-3.3 3-5.5 4.2-5.2.4-12.5-8-9.4-14m5 1.4v1l-1.2-.9-.2-.5zm7.1 6.1-2.6 2c-5.1.6-7.2-3-7.3-7.3l1-1.2h.4c2.6 2 4.9 5 8.3 6.1zm-5-21q-.4-.3-.7-1l1-3.7 1.1-1 .8 1zm-.7 1.3 2.3-5.3.4-.2c1 1.8 2.6 2.6 3 5l-3.4 3.6q-1.5-1.2-2.3-3m4.3 4.4 2.9-2.8 1.4 3zm7.1-29c-1.3 2.8-3.1 4.8-4.2 7.5-.5-2.5 2.4-6.1 3.3-8.3l.4-.3zm0-8q3-1 5-3.2l.7 2-1.8 2.3zm7.1.2-.7 1-.7-.2V73l1.3-1.2zm-1-6.2h.1l1 1.8-.4 1c-1.3-.7-1.3-1.5-.8-2.8m-.4 41.7 1.4 1-1.4-.7zm0 1.4 1.4.8-3 2.1c-.9-.4-1-1.2-1.2-2v-.2zm-4.2-2.9 1.4.6-.8.4h-.7zm0-28.7c1.6.4 1.1.1 1.2 1.4-.8-.5-.9-.7-1.3-1.4m0 25.7V102q1 .6 1.4 1.5zm2.8-18c-.6.7-.5.5-1.4.9l.6-1.4zm0-5.8-1 1c-.8-.6-.4-.4 0-1.3l.6-.2zm-.1-2.4L67 76c1 .4.7.2 1.3 1m-2.8 26.4 1.5 1.1q-1.1.1-1.5-1.1m4.3 0h-.6l-.5-1-.3-.4h.8zm-.8-26.7-.6-.7c.6.5.2 0 .6.7m.1 23.7-.7-1.5q0-.7.3-1.3h.2l.9 2.9zm-3.7 16.7.1.2-.5 1.9q-1.7-.7-2.3-2.9zm-4.1 2.1 1.4 1.3c-1-.4-1-.4-1.4-1.3m2.4-12.8.2 1.3-1.2-1.5zm-1.4 6.8-1-2.6c1.2.4 2.2 1.9 2.8 2.8zm1.1-25.7h.4l-1 1.5q-.3-.6.6-1.1zm-.7 12.4-.3.6-.8-.6-.3-.7 1-.1zm-10 12.1c2.9 1.9 7.7 3.6 8.6 7.2a24 24 0 0 1-8.6-7.2m7.4-1.4 1.2 1.4-2.9-1.4zm10.4 4.3-2.1-2.2 3.8-3.6.5 4zm2.2 2.4.3-1h.5l.6 1.5zm1.9-5.3-.5-1.4q.5 0 1 .2zm-2-48.5 1.5-.4-1 1.4zM58.5 93.4l-1.3-2.9c1.7.4 1.4 1.6 1.3 2.9m-3.5 1.4c-1.2-.8-2-2.5-2-4.3 2.4.6 2.3 1.6 2.8 3.9zm-1.5-7.5c-1.8-1.7.9-8.5 2-10.1.7-.8 1.4-.8 2.4-1l.7.1c-1.7 3-2.8 7.1-3.3 11.3zm-2.6 23.4.9 1.4-.8 1.8-.5.5c.7.1.8-.5 1.8-1.2 1.8 3 4.6 5.8 7.7 7.4q-.7 1.5-1.7 3l-5.1-3.3c-.6-1 .2-2.3-.7-3-.9-.6-2 .3-2.8 0l-2.5-2.2q.9-2.5 2.8-4zm-5-15.9 1.1-4.3.7 4.3.4 2.2 3.4 9.3c-2.7-1.4-4.4-4.8-4.1-9.4-.7 1.5-.1 3.8 0 5-1.6-1.3-1.8-4.1-1.4-7.1m-2.4 1.5-.5-1.8v-2.4l.3-.5 1-1-.5 4zm99 14.4-2.8-1.1 2.8-.4zM67.3 134l.7-.4-.8 1.4zM45.7 84.8l-1.2-.2a5 5 0 0 1-3-4.2c2.3.2 3 1.3 4.2 2.7zm-.2-.2c.2-3-2.2-5-5.3-5 .6-4.3 4.4-6.5 7.8-8h.6c-.5 5.4-.1 10.2-2.2 14.9-1.5 3.5-6.9 3.4-6.6 8.8v.5c.8 7.1 8.6 8.6 9.7 14.9-11.5 5.8 2.6 30.5 11.7 16 1.6.3 3.1 1 5.2.3.9-.5 1-1 1.5-2l3.2 1.6.2.5c-3 2.3-5.1 5.5-8.3 7.6q0-.5.3-.8l-.9-.2-.4.2-.4 2c1.8 1.9 7.4-4.9 9-6.2-1 3.2-3.2 4.8-4.5 7.8l.4.4c2.4-1.7 5.4-6.6 5.8-10.3l3.6.6c-4.5 6.1-16 19.5-22.2 23 1-2.9 2.4-5 3.2-7.5h-.5l-.4-.3c-1.4 2.9-3.9 5-4.3 8.9l1 1c7.2-1.2 19.3-19.4 25-24.4-1.5 15.7-9.9 18.1-17.2 27.6 6.6-3.3 10.7-11.7 16.3-16.4-.6 6.6-2.2 21.2-6 23.8h.6c4.4-2.8 4.6-14 6-19.8l.7-6 6.3-8.8q.3 0 .5-.3c.7 2.3 3.9 4.6 7.3 4l2.5-1 6.2 2.3c.8 9 .5 14-5.2 20.7 5.8-3 8-14.3 6-20.3 13.5 1.5 13-3 10.4-12.8h2.4c-.5-.6-1.7-.1-2.6-.6-.4-.3-.3-.2-.5-.6 3.2-3.6 10.9 0 9.2 6 2.3-5-2.6-9.4-7.4-7.7 2-2.3 4.5-4.3 5.8-7.5l.4-.2 11.1 11.6h.7l.5-.7-10.6-12.5 3-1.2-.5-.3c5.7.6 12.9 5.3 18.8 3.8.5-1 .6-1.5.2-2.4 6.3.1 17.6-2 21.2-5a92 92 0 0 1-29.4 1.5l-7.9-.9h-.4l2.1-3.8c6.5 0 23.5-.2 27-4.3l-.8-1-3-.4q-.4.5-.3 1l2.3.3c-5 1.3-19.3 4-24 2.4-.4-.6 0-2.6 0-4v-.9c6.6-2 11.6-6.4 13.6-13.2 1.1-3.9.4-9 2.9-11.3 1.6.1 2 .8 3 1.2a5 5 0 0 0-2.5-1.7l-2.1 1.4c-2 .8-4-1.2-7.2.3-2.6-2.2-4-5.7-7.6-7l-.4-.7 4.3-4.2-4.3 4-2.8-1.3-.2-.4a12 12 0 0 1 10-2.5l.5 1q-.3.5-.5.5l-1.3-.3q.8.4 1.7.5l.5-.5v-.6c-.8-.7-1-1.3-2.6-1.3l.7-1.1c-1.8 1.2-5.5 1.6-7.3 2.7l4.2-3.4.5-.6-7.8 4.6a7 7 0 0 1-4.4-1.8h-.4l9.3-6.2-.2-.7-10.5 6.2-3.4-.9.3-3 24.2-18.9h.4l-.3-.8c-1-.5-4.6 2.5-6 3.4-5.3 3.4-10 7.7-15.3 10.8 2.1-2.8 6.1-5.5 6.8-9.5l-1-.2-1.7 1.4 1.8-.7a33 33 0 0 1-9.4 11.8l-.4-.8c2-3.3 3.8-7.7 3-11.8l-1.7-1-1.7.2q1.6.4 2.7 1c.5 4-1.5 6.8-2.6 10q-.2.2-.4.3c-.7-1.3-.7-2-2.2-2.2v-.8q.3-.8 1-1.4l.6-.5c.2.5.3.3.3 1q.3-.4.4-1l-.9-.4-2.1 2.3a17 17 0 0 0-6.4-3c1.4-3 5.8-7.7 3.6-11.5-2.8-4.7-12.3.7-15.7 4.3q-.8.8-1 1.4l1-.8c3.4-2.6 12.5-8.6 14.5-3.8 2 2.7-2 8-3 10a95 95 0 0 0-11.5-.6q-6 0-12.3 2c-2 .7-10.6 5.8-11 5.7l-3.9-3.7-8.2-4.1v.4l-.5.5L67 52l-1.6 1a33 33 0 0 0-13.7-7l-1.1.2 11.3 7.3.8 1c-2.7 1.1-3.9 3.5-6.1 5a75 75 0 0 0-11.2-4.6l-.3.9 8 5.2h.5q-.8.4-1.4.9c-.6 2.1-1.9 4.6-3 7.7-4 3.3-9.2 3-10 9.7-1.3.4-2.2.5-3.4 1.3v1c.7 1 7.2 3.7 8.8 4zm47.8-46 .6.1h-1.2c.6-1.2 2.5-1.5 4.2-1.4v.8l-3.6.2zm2.5 1.5 1.7-.5q1.2-1.9.7-3.7c-1.7-.3-2.7.1-4.3.8l-.9 1.4-.3.6.3.3q.8.7 2.4.5c.4.6 0 .4-.6.5zm41.4 13-.7.3 1.2.5-1.9 3.5c1-1.1 2-2 2.4-3.7zm-10.4 56.1q-.7-1.2-1.4-1.4zm-5.7 17.3-1.4.8h1.1zm5.7-17.3c1.5 1.7 2.6 4.8 2.2 7.2 1.7-3.5-.2-5.7-2.2-7.2"/></svg>